# Blender 3.3.1
# www.blender.org
mtllib Branch_04.mtl
o Cylinder.011
v -7.030420 0.368082 -3.245418
v -7.030420 -0.139819 -2.997673
v -7.030420 -0.265261 -2.440997
v -7.030420 0.086218 -1.994577
v -7.030420 0.649946 -1.994577
v -7.030420 1.001425 -2.440997
v -7.030420 0.875983 -2.997673
v 0.477093 -0.750631 -3.839351
v 0.477093 -0.000000 -4.224784
v 0.477093 -0.998032 -2.973291
v 0.477093 -0.444166 -2.278765
v 0.477093 0.444166 -2.278765
v 0.477093 0.998032 -2.973291
v 0.477093 0.800359 -3.839351
v -3.935864 -0.017367 -3.664005
v -3.935864 -0.651239 -3.358748
v -3.935864 -0.807793 -2.672843
v -3.935864 -0.369139 -2.122789
v -3.935864 0.334406 -2.122789
v -3.935864 0.773059 -2.672843
v -3.935864 0.616505 -3.358748
v -1.726316 0.109867 -3.885556
v -1.726316 -0.614161 -3.482792
v -1.821307 -0.792981 -2.801715
v -1.726316 -0.291938 -2.173427
v -1.726316 0.511672 -2.173427
v -1.726316 1.012715 -2.801715
v -1.726316 0.833895 -3.585177
v -7.088455 0.368082 -3.262735
v 0.592118 -0.000000 -4.169510
v -7.088455 -0.153186 -3.008470
v 0.592118 -0.757144 -3.804888
v -7.088455 -0.281928 -2.437144
v 0.592118 -0.944143 -2.985591
v -7.088455 0.078800 -1.978975
v 0.592118 -0.420183 -2.328566
v -7.088455 0.657364 -1.978975
v 0.592118 0.420183 -2.328566
v -7.088455 1.018092 -2.437144
v 0.592118 0.944143 -2.985591
v -7.088455 0.889350 -3.008470
v 0.592118 0.757144 -3.804888
v 0.592118 -0.821423 -3.856148
v 0.592118 -0.000000 -4.251725
v 0.592118 -1.024297 -2.967297
v 0.592118 -0.455855 -2.254493
v 0.592118 0.455855 -2.254493
v 0.592118 1.024297 -2.967297
v 0.592118 0.821423 -3.856148
v -7.088455 -0.112395 -2.975522
v -7.088455 0.368082 -3.209889
v -7.088455 -0.231063 -2.448903
v -7.088455 0.101437 -2.026588
v -7.088455 0.634727 -2.026588
v -7.088455 0.967227 -2.448903
v -7.088455 0.848559 -2.975522
v -3.926530 -0.017367 -3.685342
v -3.926530 -0.667921 -3.372052
v -3.926530 -0.828594 -2.668095
v -3.926530 -0.378397 -2.103565
v -3.926530 0.343663 -2.103565
v -3.926530 0.793861 -2.668095
v -3.926530 0.633187 -3.372052
v -4.010492 -0.299786 -2.151372
v -4.010492 0.338475 -2.151372
v -4.010492 -0.555709 -3.272645
v -4.010492 -0.697736 -2.650386
v -4.010492 0.594398 -3.272645
v -4.010492 0.019345 -3.549576
v -4.010492 0.736425 -2.650386
v -1.712620 0.502552 -2.212559
v -1.807612 -0.707495 -2.795286
v -1.712620 0.129884 -3.845326
v -1.712620 0.967262 -2.795286
v -1.712620 -0.242785 -2.212559
v -1.712620 -0.541642 -3.521936
v -1.712620 0.801409 -3.521936
v -1.666842 0.109867 -3.958222
v -1.496564 -0.800633 -3.948058
v -1.761833 -0.816741 -2.796292
v -1.666842 -0.302512 -2.151469
v -1.666842 0.522247 -2.151469
v -1.666842 1.036476 -2.796292
v -1.666842 0.852950 -3.600373
v -2.157824 -0.644490 -3.595129
v -1.666842 -0.275561 -3.772610
v -1.761833 -0.738436 -3.139368
v -1.125869 -0.692272 -3.621570
v -2.193855 -0.709805 -3.279263
v -1.105813 -0.458020 -3.721048
v -1.327021 -0.716057 -3.373130
v -1.926432 -0.470620 -3.678772
v -1.301158 -1.183696 -4.259542
v -1.576311 -1.159324 -4.250794
v -1.576311 -1.011727 -4.321873
v -1.778930 -1.163977 -4.248630
v -1.576311 -1.202747 -4.060546
v -1.830591 -1.190931 -4.135182
v -1.400575 -1.087024 -4.300594
v -1.683439 -1.092224 -4.283148
v -1.491863 -1.193511 -4.157016
v -1.325611 -0.953355 -3.883203
v -1.468614 -0.968862 -3.721231
v -1.657101 -0.983452 -3.568827
v -1.977200 -0.922203 -3.865964
v -2.058816 -0.964786 -3.686738
v -1.826343 -0.808848 -3.920496
v -1.657101 -0.681678 -3.981674
vn -0.1634 -0.4651 -0.8701
vn -0.1043 -0.9572 -0.2701
vn -0.0236 -0.7808 0.6244
vn 0.0478 -0.0000 0.9989
vn 0.0537 0.7807 0.6226
vn -0.0108 0.9749 -0.2225
vn -0.1088 0.4078 -0.9065
vn 1.0000 -0.0000 -0.0000
vn -1.0000 -0.0000 -0.0000
vn -0.0678 0.4349 -0.8979
vn 0.0556 0.9737 -0.2210
vn 0.1044 0.7793 0.6179
vn 0.0414 -0.0000 0.9991
vn -0.0898 -0.7804 0.6188
vn -0.1841 -0.9585 -0.2175
vn -0.1739 -0.4293 -0.8863
vn -0.1234 0.4042 -0.9063
vn -0.1179 0.9681 -0.2210
vn -0.0484 0.7809 0.6228
vn 0.0229 -0.0000 0.9997
vn 0.0424 -0.7828 0.6208
vn -0.0023 -0.9712 -0.2384
vn -0.0521 -0.4617 -0.8855
vn -0.1245 -0.4846 -0.8658
vn -0.6004 0.4980 -0.6257
vn -0.0240 -0.7808 0.6243
vn 0.0456 -0.0000 0.9990
vn 0.0513 0.7808 0.6227
vn -0.0405 -0.0000 -0.9992
vn -0.0116 0.9749 -0.2225
vn -0.0955 0.4319 -0.8968
vn 0.1600 0.9626 0.2184
vn 0.0503 -0.4354 0.8988
vn -0.0995 -0.7797 -0.6182
vn 0.0773 0.7813 -0.6194
vn 0.1476 0.4312 0.8901
vn -0.0588 -0.9735 0.2209
vn -0.0675 0.4349 -0.8979
vn 0.0532 0.9738 -0.2210
vn 0.1011 0.7796 0.6181
vn 0.0394 -0.0000 0.9992
vn -0.0891 -0.7804 0.6188
vn -0.1814 -0.9590 -0.2176
vn -0.1714 -0.4295 -0.8867
vn 0.1113 -0.9689 0.2211
vn 0.0947 0.4319 0.8969
vn -0.0367 0.7829 -0.6211
vn 0.0392 -0.7812 -0.6230
vn 0.1356 -0.4299 0.8927
vn 0.0187 0.9745 0.2237
vn -0.0266 -0.0000 -0.9996
vn -0.0503 -0.0000 -0.9987
vn 0.1158 0.9668 0.2278
vn 0.1017 -0.4316 0.8963
vn -0.0592 -0.7805 -0.6224
vn 0.0280 0.7805 -0.6246
vn 0.1495 0.4290 0.8908
vn 0.0086 -0.9749 0.2225
vn -0.1321 0.4301 -0.8931
vn -0.1165 0.9683 -0.2210
vn -0.0485 0.7809 0.6228
vn 0.0212 -0.0000 0.9998
vn 0.0402 -0.7827 0.6211
vn -0.0120 -0.9762 -0.2167
vn -0.0812 -0.4026 -0.9118
vn -0.1133 -0.9619 -0.2487
vn -0.9022 -0.0651 -0.4263
vn 0.7067 0.6270 -0.3277
vn 0.4429 -0.7977 0.4093
vn -0.0994 -0.9648 -0.2433
vn -0.1604 -0.4166 -0.8948
vn -0.0054 -0.9773 -0.2116
vn -0.1068 -0.9713 -0.2125
vn -0.0988 -0.4090 -0.9072
vn 0.0200 -0.9747 -0.2225
vn -0.0725 -0.4403 -0.8949
vn 0.0003 -0.4339 -0.9010
vn 0.4134 -0.7941 0.4455
vn 0.4920 0.7089 -0.5053
vn -0.1542 -0.9115 0.3812
vn -0.1920 -0.8657 0.4622
vn 0.2640 0.3816 -0.8858
vn -0.5498 0.3719 -0.7480
vn 0.5196 -0.7741 0.3616
vn 0.3524 -0.7956 0.4927
vn 0.6688 -0.0541 -0.7414
vn -0.9391 -0.2132 -0.2696
vt 0.545588 0.915133
vt -0.067601 0.828079
vt 0.480574 0.966980
vt -0.065404 0.909533
vt -0.065404 0.814319
vt 0.399504 0.948476
vt -0.067466 0.895675
vt 0.363424 0.873555
vt -0.066727 0.881962
vt 0.399504 0.798635
vt -0.065420 0.868538
vt 0.480575 0.780131
vt -0.065522 0.855025
vt 0.545588 0.831978
vt -0.066893 0.841693
vt -0.173859 0.794872
vt -0.173971 0.928350
vt 0.543129 0.787159
vt -0.175109 0.814017
vt 0.444104 0.764557
vt -0.175837 0.909461
vt 0.622541 0.723830
vt -0.176255 0.890517
vt 0.622541 0.622258
vt -0.175975 0.871537
vt 0.543129 0.558930
vt -0.175701 0.852325
vt 0.444104 0.581531
vt -0.175462 0.833089
vt 0.400034 0.673044
vt -0.110117 0.817988
vt -0.108203 0.921991
vt -0.108008 0.801442
vt -0.109785 0.905441
vt -0.109971 0.888729
vt -0.109629 0.871042
vt -0.109595 0.852843
vt -0.110316 0.834946
vt -0.142544 0.817756
vt -0.141131 0.924839
vt -0.141032 0.799523
vt -0.142589 0.906456
vt -0.143379 0.888013
vt -0.143673 0.870120
vt -0.143658 0.852707
vt -0.143344 0.835454
vt 0.192413 0.749096
vt 0.477598 0.210188
vt 0.188212 0.799908
vt 0.501527 0.393992
vt 0.131906 0.797350
vt 0.481905 0.148567
vt 0.153815 0.871335
vt 0.504069 0.472946
vt 0.056455 0.780128
vt 0.501210 0.512219
vt 0.501210 0.090714
vt 0.188213 0.942762
vt 0.514683 0.551732
vt 0.517580 0.000158
vt 0.022875 0.710400
vt 0.499486 0.450498
vt 0.265503 0.960403
vt 0.511841 0.078299
vt 0.056454 0.640673
vt 0.500600 0.389984
vt 0.327485 0.910974
vt 0.509708 0.156401
vt 0.131906 0.623451
vt 0.495672 0.329613
vt 0.327485 0.831696
vt 0.507110 0.235598
vt 0.192413 0.671704
vt 0.485312 0.270515
vt 0.265503 0.782267
vt 0.503863 0.315034
vt 0.146059 0.871335
vt 0.003055 0.085886
vt 0.183377 0.793844
vt 0.000158 0.172773
vt 0.019285 0.602841
vt 0.183377 0.948826
vt 0.012144 0.000158
vt 0.011853 0.517557
vt 0.267229 0.967964
vt 0.008281 0.432294
vt 0.334473 0.914339
vt 0.005047 0.345793
vt 0.334473 0.828331
vt 0.002146 0.259058
vt 0.267229 0.774705
vt 0.984356 0.413819
vt 0.130353 0.790546
vt 0.981534 0.356984
vt 0.186126 0.746068
vt 0.999841 0.467754
vt 0.997300 0.079703
vt 0.060806 0.774672
vt 0.997581 0.136090
vt 0.029854 0.710400
vt 0.999842 0.191379
vt 0.060806 0.646129
vt 0.130353 0.630255
vt 0.996963 0.246708
vt 0.988463 0.301400
vt 0.186126 0.674732
vt 0.289257 0.182059
vt 0.294793 0.113439
vt 0.312027 0.572127
vt 0.310935 0.041208
vt 0.307237 0.495172
vt 0.304149 0.415430
vt 0.299546 0.334379
vt 0.292057 0.255663
vt 0.811436 0.101822
vt 0.810015 0.172289
vt 0.802513 0.444260
vt 0.814116 0.033928
vt 0.816005 0.507940
vt 0.800316 0.314201
vt 0.797791 0.380757
vt 0.806246 0.243940
vt 0.655691 0.169377
vt 0.666003 0.530262
vt 0.665185 0.024995
vt 0.651236 0.380916
vt 0.652726 0.239392
vt 0.659508 0.097850
vt 0.656210 0.455251
vt 0.650738 0.309132
vt 0.147305 0.184042
vt 0.820821 0.729974
vt 0.164818 0.579509
vt 0.160978 0.018588
vt 0.157463 0.498358
vt 0.152217 0.418691
vt 0.148603 0.340806
vt 0.146608 0.263548
vt 0.187100 0.103199
vt 0.776859 0.826255
vt 0.149352 0.141667
vt 0.746255 0.767187
vt 0.156882 0.054666
vt 0.787822 0.914437
vt 0.766311 0.604637
vt 0.107957 0.097078
vt 0.775592 0.687290
vt 0.191731 0.072200
vt 0.765678 0.868848
vt 0.106215 0.121829
vt 0.753445 0.709478
vt 0.124707 0.074712
vt 0.766526 0.652301
vt 0.167877 0.119843
vt 0.763714 0.796836
vt 0.639789 0.644536
vt 0.894774 0.717675
vt 0.669060 0.623181
vt 0.684347 0.642079
vt 0.881238 0.755663
vt 0.890035 0.783711
vt 0.684347 0.610512
vt 0.885952 0.676230
vt 0.651702 0.600047
vt 0.894774 0.822033
vt 0.677835 0.593978
vt 0.883627 0.798828
vt 0.656957 0.650030
vt 0.888342 0.732096
vt 0.684179 0.625398
vt 0.885830 0.770475
vt 0.646151 0.621682
vt 0.889553 0.697761
vt 0.832262 0.698811
vt 0.822815 0.671478
vt 0.837616 0.869893
vt 0.820511 0.638039
vt 0.830039 0.809398
vt 0.821152 0.834213
vt 0.822087 0.787615
vt 0.812332 0.762001
s 0
usemtl Material.007
f 22/39/1 9/19/1 8/16/1 23/41/1
f 23/40/2 8/17/2 10/21/2 24/42/2
f 24/42/3 10/21/3 11/23/3 25/43/3
f 25/43/4 11/23/4 12/25/4 26/44/4
f 26/44/5 12/25/5 13/27/5 27/45/5
f 27/45/6 13/27/6 14/29/6 28/46/6
f 28/46/7 14/29/7 9/19/7 22/39/7
f 8/18/8 9/20/8 14/30/8 13/28/8 12/26/8 11/24/8 10/22/8
f 1/1/9 2/3/9 3/6/9 4/8/9 5/10/9 6/12/9 7/14/9
f 7/15/10 21/38/10 15/31/10 1/2/10
f 6/13/11 20/37/11 21/38/11 7/15/11
f 5/11/12 19/36/12 20/37/12 6/13/12
f 4/9/13 18/35/13 19/36/13 5/11/13
f 3/7/14 17/34/14 18/35/14 4/9/14
f 2/4/15 16/32/15 17/34/15 3/7/15
f 1/2/16 15/31/16 16/33/16 2/5/16
f 21/38/17 28/46/17 22/39/17 15/31/17
f 20/37/18 27/45/18 28/46/18 21/38/18
f 19/36/19 26/44/19 27/45/19 20/37/19
f 18/35/20 25/43/20 26/44/20 19/36/20
f 17/34/21 24/42/21 25/43/21 18/35/21
f 16/32/22 23/40/22 24/42/22 17/34/22
f 15/31/23 22/39/23 23/41/23 16/33/23
f 78/131/24 44/80/24 90/150/24 86/141/24
f 105/178/25 107/180/25 100/171/25 96/161/25
f 80/133/26 45/81/26 46/84/26 81/135/26
f 81/135/27 46/84/27 47/86/27 82/136/27
f 82/136/28 47/86/28 48/88/28 83/137/28
f 65/116/29 64/115/29 53/99/29 54/101/29
f 83/137/30 48/88/30 49/90/30 84/138/30
f 84/138/31 49/90/31 44/80/31 78/131/31
f 39/69/9 41/73/9 56/106/9 55/103/9
f 30/49/8 32/53/8 43/77/8 44/79/8
f 32/53/8 34/58/8 45/82/8 43/77/8
f 34/58/8 36/63/8 46/85/8 45/82/8
f 36/63/8 38/67/8 47/87/8 46/85/8
f 38/67/8 40/71/8 48/89/8 47/87/8
f 40/71/8 42/75/8 49/91/8 48/89/8
f 42/75/8 30/49/8 44/79/8 49/91/8
f 37/65/9 39/69/9 55/103/9 54/102/9
f 67/119/32 66/117/32 50/92/32 52/96/32
f 69/121/33 68/120/33 56/105/33 51/94/33
f 70/122/34 65/116/34 54/101/34 55/104/34
f 64/115/35 67/118/35 52/97/35 53/99/35
f 66/117/36 69/121/36 51/94/36 50/92/36
f 68/120/37 70/122/37 55/104/37 56/105/37
f 35/61/9 37/65/9 54/102/9 53/100/9
f 33/55/9 35/61/9 53/100/9 52/98/9
f 31/51/9 33/55/9 52/98/9 50/93/9
f 29/47/9 31/51/9 50/93/9 51/95/9
f 41/73/9 29/47/9 51/95/9 56/106/9
f 41/74/38 63/114/38 57/107/38 29/48/38
f 39/70/39 62/113/39 63/114/39 41/74/39
f 37/66/40 61/112/40 62/113/40 39/70/40
f 35/62/41 60/111/41 61/112/41 37/66/41
f 33/56/42 59/109/42 60/111/42 35/62/42
f 31/52/43 58/108/43 59/110/43 33/57/43
f 29/48/44 57/107/44 58/108/44 31/52/44
f 77/130/45 74/127/45 70/122/45 68/120/45
f 76/129/46 73/126/46 69/121/46 66/117/46
f 75/128/47 72/125/47 67/118/47 64/115/47
f 74/127/48 71/123/48 65/116/48 70/122/48
f 73/126/49 77/130/49 68/120/49 69/121/49
f 72/124/50 76/129/50 66/117/50 67/119/50
f 71/123/51 75/128/51 64/115/51 65/116/51
f 38/68/52 36/64/52 75/128/52 71/123/52
f 34/59/53 32/54/53 76/129/53 72/124/53
f 30/50/54 42/76/54 77/130/54 73/126/54
f 40/72/55 38/68/55 71/123/55 74/127/55
f 36/64/56 34/60/56 72/125/56 75/128/56
f 32/54/57 30/50/57 73/126/57 76/129/57
f 42/76/58 40/72/58 74/127/58 77/130/58
f 63/114/59 84/138/59 78/131/59 57/107/59
f 62/113/60 83/137/60 84/138/60 63/114/60
f 61/112/61 82/136/61 83/137/61 62/113/61
f 60/111/62 81/135/62 82/136/62 61/112/62
f 59/109/63 80/133/63 81/135/63 60/111/63
f 58/108/64 85/139/64 89/148/64 59/110/64
f 57/107/65 78/131/65 86/141/65 92/154/65
f 94/158/66 93/156/66 101/172/66 97/164/66
f 106/179/67 105/178/67 96/161/67 98/167/67
f 79/132/68 102/174/68 93/157/68 99/169/68
f 103/175/69 104/177/69 97/163/69 101/173/69
f 87/143/70 91/152/70 45/83/70 80/134/70
f 90/150/71 44/80/71 43/78/71 88/146/71
f 59/110/72 89/148/72 87/143/72 80/134/72
f 45/83/73 91/152/73 88/146/73 43/78/73
f 92/154/74 85/139/74 58/108/74 57/107/74
f 97/164/75 98/166/75 96/162/75 94/158/75
f 95/159/76 99/168/76 93/156/76 94/158/76
f 96/162/77 100/170/77 95/159/77 94/158/77
f 102/174/78 103/175/78 101/173/78 93/157/78
f 107/180/25 108/181/25 95/160/25 100/171/25
f 108/181/79 79/132/79 99/169/79 95/160/79
f 104/176/80 106/179/80 98/167/80 97/165/80
f 87/144/81 89/149/81 106/179/81 104/176/81
f 86/142/82 90/151/82 79/132/82 108/181/82
f 92/155/83 86/142/83 108/181/83 107/180/83
f 88/147/84 91/153/84 103/175/84 102/174/84
f 91/153/85 87/145/85 104/177/85 103/175/85
f 90/151/86 88/147/86 102/174/86 79/132/86
f 89/149/87 85/140/87 105/178/87 106/179/87
f 85/140/83 92/155/83 107/180/83 105/178/83
